<?xml version="1.0" encoding="UTF-8"?>
<svg xmlns="http://www.w3.org/2000/svg" xmlns:xlink="http://www.w3.org/1999/xlink" width="140px" height="37px" viewBox="0 0 138 37" version="1.1">
<g id="surface1">
<path style=" stroke:none;fill-rule:nonzero;fill:rgb(7.058824%,68.235296%,93.725491%);fill-opacity:1;" d="M 22.457031 5.382812 C 22.574219 5.492188 22.6875 5.59375 22.808594 5.699219 C 23.039062 5.90625 23.25 6.136719 23.460938 6.363281 C 23.707031 6.632812 23.960938 6.886719 24.21875 7.140625 C 24.359375 7.285156 24.496094 7.425781 24.628906 7.582031 C 24.8125 7.792969 25.007812 7.988281 25.207031 8.1875 C 25.601562 8.574219 25.601562 8.574219 25.78125 8.785156 C 25.96875 9.007812 26.175781 9.207031 26.382812 9.410156 C 26.617188 9.644531 26.84375 9.878906 27.058594 10.128906 C 27.214844 10.304688 27.386719 10.472656 27.554688 10.636719 C 27.949219 11.027344 27.949219 11.027344 28.128906 11.238281 C 28.316406 11.457031 28.519531 11.660156 28.726562 11.863281 C 28.960938 12.09375 29.1875 12.328125 29.402344 12.578125 C 29.566406 12.765625 29.746094 12.9375 29.921875 13.113281 C 30.15625 13.34375 30.386719 13.578125 30.601562 13.828125 C 30.757812 14.007812 30.925781 14.171875 31.097656 14.335938 C 31.488281 14.726562 31.488281 14.726562 31.667969 14.9375 C 31.859375 15.15625 32.0625 15.359375 32.269531 15.5625 C 32.503906 15.796875 32.730469 16.027344 32.945312 16.28125 C 33.101562 16.457031 33.273438 16.621094 33.441406 16.789062 C 33.671875 17.015625 33.898438 17.246094 34.109375 17.496094 C 34.175781 17.570312 34.242188 17.636719 34.316406 17.703125 C 34.40625 17.804688 34.40625 17.804688 34.40625 17.890625 C 34.34375 18.035156 34.246094 18.109375 34.128906 18.210938 C 33.855469 18.453125 33.597656 18.710938 33.339844 18.972656 C 33.195312 19.121094 33.050781 19.261719 32.894531 19.398438 C 32.675781 19.585938 32.472656 19.796875 32.269531 20.003906 C 32.039062 20.238281 31.808594 20.46875 31.558594 20.683594 C 31.371094 20.847656 31.199219 21.027344 31.027344 21.207031 C 30.796875 21.441406 30.5625 21.671875 30.3125 21.886719 C 30.136719 22.042969 29.972656 22.214844 29.808594 22.386719 C 29.421875 22.78125 29.421875 22.78125 29.210938 22.960938 C 28.992188 23.152344 28.792969 23.359375 28.589844 23.5625 C 28.359375 23.800781 28.125 24.027344 27.875 24.246094 C 27.699219 24.402344 27.535156 24.574219 27.371094 24.742188 C 26.984375 25.140625 26.984375 25.140625 26.773438 25.320312 C 26.554688 25.507812 26.355469 25.714844 26.152344 25.921875 C 25.921875 26.160156 25.6875 26.386719 25.4375 26.605469 C 25.261719 26.761719 25.097656 26.933594 24.933594 27.101562 C 24.542969 27.5 24.542969 27.5 24.335938 27.679688 C 24.117188 27.867188 23.914062 28.074219 23.714844 28.28125 C 23.484375 28.515625 23.25 28.746094 23 28.960938 C 22.816406 29.125 22.644531 29.308594 22.472656 29.484375 C 22.234375 29.722656 22 29.957031 21.746094 30.175781 C 21.640625 30.269531 21.542969 30.371094 21.445312 30.472656 C 21.246094 30.671875 21.039062 30.851562 20.820312 31.027344 C 20.714844 31.113281 20.617188 31.203125 20.515625 31.296875 C 19.40625 32.292969 18.003906 33.144531 16.558594 33.53125 C 16.507812 33.546875 16.507812 33.546875 16.453125 33.558594 C 15.488281 33.8125 14.398438 33.828125 13.433594 33.578125 C 13.386719 33.566406 13.386719 33.566406 13.335938 33.554688 C 12.265625 33.285156 11.296875 32.746094 10.441406 32.050781 C 10.417969 32.03125 10.394531 32.011719 10.367188 31.992188 C 9.722656 31.464844 9.105469 30.871094 8.601562 30.203125 C 8.582031 30.175781 8.5625 30.148438 8.542969 30.125 C 7.355469 28.566406 6.640625 26.75 6.890625 24.761719 C 7.128906 23.105469 7.917969 21.671875 8.96875 20.394531 C 9.007812 20.351562 9.042969 20.308594 9.082031 20.261719 C 9.441406 19.828125 9.832031 19.425781 10.230469 19.027344 C 10.339844 18.917969 10.445312 18.808594 10.554688 18.703125 C 10.625 18.632812 10.695312 18.5625 10.761719 18.492188 C 10.792969 18.460938 10.828125 18.429688 10.859375 18.398438 C 11.039062 18.21875 11.226562 18.046875 11.417969 17.878906 C 11.519531 17.789062 11.613281 17.699219 11.703125 17.605469 C 11.738281 17.570312 11.773438 17.535156 11.808594 17.496094 C 11.84375 17.460938 11.878906 17.425781 11.914062 17.390625 C 12.300781 16.992188 12.300781 16.992188 12.511719 16.8125 C 12.730469 16.625 12.929688 16.417969 13.132812 16.210938 C 13.363281 15.976562 13.59375 15.746094 13.84375 15.53125 C 14.03125 15.367188 14.199219 15.1875 14.375 15.007812 C 14.605469 14.773438 14.835938 14.542969 15.085938 14.328125 C 15.300781 14.136719 15.5 13.925781 15.699219 13.71875 C 15.910156 13.5 16.128906 13.308594 16.375 13.136719 C 16.972656 13.726562 16.972656 13.726562 17.21875 14.019531 C 17.34375 14.160156 17.476562 14.289062 17.609375 14.417969 C 17.726562 14.542969 17.839844 14.667969 17.949219 14.796875 C 18.042969 14.902344 18.140625 15 18.238281 15.101562 C 18.367188 15.226562 18.488281 15.355469 18.605469 15.492188 C 18.730469 15.636719 18.859375 15.773438 18.996094 15.910156 C 19.164062 16.074219 19.316406 16.242188 19.46875 16.417969 C 19.59375 16.5625 19.730469 16.691406 19.863281 16.824219 C 19.980469 16.945312 20.09375 17.074219 20.203125 17.203125 C 20.332031 17.347656 20.46875 17.480469 20.605469 17.617188 C 20.835938 17.855469 20.835938 17.855469 20.839844 17.988281 C 20.769531 18.132812 20.65625 18.222656 20.535156 18.328125 C 20.253906 18.578125 19.988281 18.84375 19.722656 19.117188 C 19.578125 19.261719 19.433594 19.402344 19.277344 19.535156 C 19.058594 19.726562 18.855469 19.933594 18.652344 20.140625 C 18.421875 20.378906 18.191406 20.605469 17.941406 20.824219 C 17.765625 20.980469 17.601562 21.152344 17.433594 21.320312 C 17.046875 21.71875 17.046875 21.71875 16.835938 21.898438 C 16.617188 22.085938 16.417969 22.292969 16.214844 22.5 C 15.984375 22.738281 15.75 22.96875 15.5 23.183594 C 14.425781 24.125 14.425781 24.125 13.882812 25.402344 C 13.871094 25.785156 13.964844 26.070312 14.21875 26.355469 C 14.457031 26.574219 14.722656 26.667969 15.039062 26.710938 C 15.917969 26.652344 16.699219 25.832031 17.273438 25.226562 C 17.367188 25.136719 17.460938 25.050781 17.558594 24.964844 C 17.78125 24.773438 17.984375 24.5625 18.191406 24.351562 C 18.421875 24.113281 18.65625 23.886719 18.902344 23.671875 C 19.089844 23.503906 19.261719 23.324219 19.433594 23.148438 C 19.664062 22.914062 19.898438 22.683594 20.148438 22.46875 C 20.324219 22.308594 20.488281 22.136719 20.652344 21.96875 C 21.042969 21.574219 21.042969 21.574219 21.25 21.390625 C 21.46875 21.203125 21.671875 20.996094 21.871094 20.789062 C 22.105469 20.554688 22.335938 20.324219 22.585938 20.109375 C 22.761719 19.949219 22.925781 19.78125 23.09375 19.609375 C 23.480469 19.214844 23.480469 19.214844 23.6875 19.035156 C 23.910156 18.84375 24.113281 18.632812 24.320312 18.425781 C 24.359375 18.386719 24.394531 18.347656 24.433594 18.308594 C 24.507812 18.234375 24.582031 18.160156 24.652344 18.085938 C 24.761719 17.976562 24.871094 17.867188 24.976562 17.761719 C 24.691406 17.445312 24.40625 17.136719 24.105469 16.835938 C 24.019531 16.75 23.9375 16.65625 23.855469 16.5625 C 23.722656 16.40625 23.582031 16.261719 23.4375 16.117188 C 23.265625 15.949219 23.105469 15.773438 22.949219 15.589844 C 22.839844 15.46875 22.726562 15.355469 22.609375 15.238281 C 22.464844 15.097656 22.328125 14.957031 22.199219 14.804688 C 22.058594 14.640625 21.910156 14.488281 21.757812 14.335938 C 21.578125 14.160156 21.40625 13.976562 21.246094 13.785156 C 21.117188 13.640625 20.976562 13.503906 20.839844 13.371094 C 20.691406 13.222656 20.554688 13.066406 20.417969 12.90625 C 20.308594 12.785156 20.195312 12.671875 20.078125 12.558594 C 19.90625 12.386719 19.746094 12.214844 19.589844 12.03125 C 19.460938 11.882812 19.320312 11.75 19.183594 11.613281 C 19.0625 11.488281 18.945312 11.363281 18.832031 11.234375 C 18.320312 10.632812 17.664062 10.046875 16.847656 9.972656 C 15.9375 9.964844 15.300781 10.355469 14.65625 10.980469 C 14.578125 11.058594 14.5 11.132812 14.421875 11.203125 C 14.078125 11.523438 13.742188 11.847656 13.414062 12.183594 C 13.273438 12.328125 13.128906 12.464844 12.976562 12.597656 C 12.765625 12.78125 12.570312 12.980469 12.375 13.179688 C 11.988281 13.578125 11.988281 13.578125 11.777344 13.757812 C 11.558594 13.945312 11.359375 14.152344 11.15625 14.359375 C 10.925781 14.597656 10.691406 14.824219 10.441406 15.042969 C 10.265625 15.199219 10.101562 15.371094 9.9375 15.539062 C 9.546875 15.9375 9.546875 15.9375 9.339844 16.117188 C 9.121094 16.304688 8.917969 16.511719 8.71875 16.71875 C 8.484375 16.957031 8.253906 17.183594 8.003906 17.398438 C 7.828125 17.558594 7.664062 17.730469 7.496094 17.898438 C 7.109375 18.292969 7.109375 18.292969 6.902344 18.476562 C 6.683594 18.664062 6.480469 18.871094 6.277344 19.078125 C 6.042969 19.320312 5.808594 19.554688 5.550781 19.773438 C 5.476562 19.839844 5.40625 19.90625 5.335938 19.980469 C 5.203125 19.917969 5.109375 19.855469 5.003906 19.75 C 4.964844 19.707031 4.964844 19.707031 4.921875 19.667969 C 4.882812 19.625 4.882812 19.625 4.839844 19.582031 C 4.796875 19.539062 4.796875 19.539062 4.757812 19.5 C 4.617188 19.355469 4.484375 19.210938 4.355469 19.0625 C 4.164062 18.839844 3.957031 18.636719 3.75 18.429688 C 3.515625 18.199219 3.285156 17.964844 3.070312 17.714844 C 2.914062 17.535156 2.746094 17.371094 2.574219 17.203125 C 2.183594 16.816406 2.183594 16.816406 2.003906 16.605469 C 1.8125 16.382812 1.605469 16.179688 1.398438 15.972656 C 1.164062 15.746094 0.9375 15.519531 0.734375 15.261719 C 0.800781 15.113281 0.878906 15.015625 0.996094 14.902344 C 1.023438 14.871094 1.054688 14.84375 1.082031 14.8125 C 1.175781 14.726562 1.269531 14.644531 1.367188 14.558594 C 1.582031 14.371094 1.777344 14.171875 1.976562 13.96875 C 2.367188 13.570312 2.367188 13.570312 2.574219 13.390625 C 2.792969 13.203125 2.996094 12.996094 3.195312 12.789062 C 3.425781 12.550781 3.660156 12.324219 3.90625 12.109375 C 4.09375 11.941406 4.265625 11.761719 4.4375 11.585938 C 4.667969 11.351562 4.902344 11.121094 5.152344 10.90625 C 5.328125 10.746094 5.492188 10.574219 5.65625 10.40625 C 6.046875 10.011719 6.046875 10.011719 6.253906 9.828125 C 6.472656 9.640625 6.675781 9.433594 6.878906 9.226562 C 7.109375 8.992188 7.339844 8.761719 7.589844 8.546875 C 7.765625 8.386719 7.929688 8.21875 8.097656 8.046875 C 8.484375 7.652344 8.484375 7.652344 8.691406 7.472656 C 8.910156 7.28125 9.113281 7.074219 9.316406 6.867188 C 9.550781 6.628906 9.785156 6.394531 10.042969 6.175781 C 10.140625 6.089844 10.230469 5.996094 10.320312 5.902344 C 10.503906 5.714844 10.703125 5.546875 10.910156 5.378906 C 10.996094 5.308594 11.082031 5.238281 11.164062 5.164062 C 14.492188 2.277344 18.757812 2.105469 22.457031 5.382812 Z M 22.457031 5.382812 "/>
<path style=" stroke:none;fill-rule:nonzero;fill:rgb(38.431373%,43.137255%,46.666667%);fill-opacity:1;" d="M 42.761719 9.007812 C 42.804688 9.007812 42.851562 9.007812 42.898438 9.007812 C 44.488281 9.007812 46.539062 9.089844 47.746094 10.292969 C 47.792969 10.347656 47.839844 10.398438 47.886719 10.453125 C 48.023438 10.390625 48.117188 10.320312 48.226562 10.214844 C 48.863281 9.648438 49.707031 9.382812 50.527344 9.210938 C 50.570312 9.203125 50.617188 9.195312 50.660156 9.183594 C 51.449219 9.035156 52.242188 9 53.042969 9.003906 C 53.089844 9.003906 53.132812 9.003906 53.179688 9.003906 C 55.265625 9.011719 57.429688 9.386719 58.972656 10.914062 C 59.738281 11.734375 60.15625 12.777344 60.351562 13.875 C 60.359375 13.917969 60.367188 13.960938 60.375 14.003906 C 60.46875 14.589844 60.457031 15.175781 60.453125 15.769531 C 60.453125 15.890625 60.453125 16.007812 60.453125 16.128906 C 60.453125 16.386719 60.453125 16.644531 60.453125 16.902344 C 60.453125 17.277344 60.453125 17.648438 60.453125 18.023438 C 60.453125 18.628906 60.453125 19.234375 60.449219 19.835938 C 60.449219 20.425781 60.449219 21.011719 60.449219 21.601562 C 60.449219 21.65625 60.449219 21.65625 60.449219 21.710938 C 60.449219 21.890625 60.449219 22.074219 60.449219 22.257812 C 60.449219 23.765625 60.445312 25.269531 60.445312 26.777344 C 58.925781 26.777344 57.40625 26.777344 55.84375 26.777344 C 55.84375 26.433594 55.84375 26.089844 55.84375 25.734375 C 55.839844 24.632812 55.839844 23.527344 55.835938 22.425781 C 55.835938 22.253906 55.835938 22.082031 55.835938 21.910156 C 55.835938 21.878906 55.835938 21.84375 55.835938 21.808594 C 55.832031 21.253906 55.832031 20.703125 55.832031 20.152344 C 55.832031 19.585938 55.828125 19.019531 55.828125 18.449219 C 55.828125 18.101562 55.824219 17.753906 55.824219 17.402344 C 55.824219 17.132812 55.824219 16.867188 55.824219 16.597656 C 55.824219 16.488281 55.824219 16.378906 55.824219 16.269531 C 55.832031 15.207031 55.832031 15.207031 55.339844 14.292969 C 54.726562 13.738281 53.9375 13.625 53.144531 13.628906 C 53.050781 13.628906 52.957031 13.628906 52.859375 13.628906 C 52.296875 13.625 51.730469 13.679688 51.222656 13.949219 C 51.191406 13.964844 51.164062 13.980469 51.132812 14 C 50.695312 14.242188 50.492188 14.550781 50.320312 15.015625 C 50.230469 15.34375 50.226562 15.671875 50.226562 16.011719 C 50.222656 16.082031 50.222656 16.082031 50.222656 16.152344 C 50.222656 16.304688 50.222656 16.460938 50.222656 16.613281 C 50.222656 16.722656 50.222656 16.835938 50.222656 16.945312 C 50.21875 17.214844 50.21875 17.484375 50.21875 17.753906 C 50.21875 18.066406 50.214844 18.378906 50.214844 18.695312 C 50.210938 19.253906 50.210938 19.8125 50.207031 20.371094 C 50.207031 20.914062 50.207031 21.453125 50.203125 21.996094 C 50.203125 22.046875 50.203125 22.046875 50.203125 22.097656 C 50.203125 22.265625 50.203125 22.433594 50.199219 22.601562 C 50.195312 23.996094 50.191406 25.386719 50.1875 26.777344 C 48.667969 26.777344 47.148438 26.777344 45.585938 26.777344 C 45.585938 26.433594 45.585938 26.089844 45.585938 25.734375 C 45.582031 24.632812 45.582031 23.527344 45.578125 22.425781 C 45.578125 22.253906 45.578125 22.082031 45.578125 21.910156 C 45.578125 21.878906 45.578125 21.84375 45.578125 21.808594 C 45.574219 21.253906 45.574219 20.703125 45.574219 20.152344 C 45.574219 19.585938 45.570312 19.019531 45.570312 18.449219 C 45.570312 18.101562 45.566406 17.753906 45.566406 17.402344 C 45.566406 17.132812 45.566406 16.867188 45.566406 16.597656 C 45.566406 16.488281 45.566406 16.378906 45.566406 16.269531 C 45.574219 15.207031 45.574219 15.207031 45.078125 14.292969 C 44.46875 13.738281 43.675781 13.625 42.882812 13.628906 C 42.789062 13.628906 42.695312 13.628906 42.597656 13.628906 C 41.867188 13.625 41.101562 13.757812 40.523438 14.246094 C 40.054688 14.730469 39.96875 15.359375 39.964844 16.003906 C 39.964844 16.050781 39.964844 16.097656 39.964844 16.144531 C 39.964844 16.300781 39.964844 16.453125 39.964844 16.609375 C 39.964844 16.71875 39.964844 16.828125 39.964844 16.941406 C 39.960938 17.210938 39.960938 17.480469 39.960938 17.75 C 39.960938 18.0625 39.957031 18.375 39.957031 18.6875 C 39.953125 19.25 39.953125 19.808594 39.949219 20.367188 C 39.949219 20.910156 39.945312 21.453125 39.945312 21.996094 C 39.945312 22.027344 39.945312 22.0625 39.945312 22.097656 C 39.945312 22.265625 39.945312 22.433594 39.941406 22.601562 C 39.9375 23.992188 39.933594 25.386719 39.929688 26.777344 C 38.410156 26.777344 36.890625 26.777344 35.328125 26.777344 C 35.324219 25.285156 35.324219 23.792969 35.324219 22.300781 C 35.324219 22.125 35.324219 21.949219 35.324219 21.769531 C 35.324219 21.734375 35.324219 21.699219 35.324219 21.664062 C 35.324219 21.097656 35.320312 20.527344 35.320312 19.960938 C 35.320312 19.378906 35.320312 18.792969 35.320312 18.210938 C 35.320312 17.851562 35.320312 17.492188 35.316406 17.132812 C 35.316406 16.855469 35.316406 16.578125 35.316406 16.304688 C 35.316406 16.191406 35.316406 16.078125 35.316406 15.964844 C 35.3125 14.277344 35.480469 12.457031 36.660156 11.144531 C 36.707031 11.089844 36.707031 11.089844 36.753906 11.03125 C 37.898438 9.675781 39.777344 9.207031 41.464844 9.039062 C 41.894531 9.003906 42.328125 9.007812 42.761719 9.007812 Z M 42.761719 9.007812 "/>
<path style=" stroke:none;fill-rule:nonzero;fill:rgb(38.431373%,43.137255%,46.666667%);fill-opacity:1;" d="M 61.824219 9.019531 C 77.324219 9.019531 77.324219 9.019531 79.855469 11.46875 C 79.894531 11.503906 79.933594 11.539062 79.972656 11.578125 C 81.335938 12.867188 81.886719 14.835938 82.0625 16.648438 C 82.070312 16.710938 82.074219 16.769531 82.082031 16.832031 C 82.238281 18.75 82.003906 20.730469 81.191406 22.476562 C 81.175781 22.507812 81.160156 22.539062 81.148438 22.570312 C 80.335938 24.285156 78.773438 25.460938 77.027344 26.09375 C 75.050781 26.773438 72.984375 26.789062 70.917969 26.78125 C 70.496094 26.78125 70.078125 26.78125 69.644531 26.777344 C 69.644531 25.238281 69.644531 23.695312 69.644531 22.109375 C 71.378906 22.09375 71.378906 22.09375 71.921875 22.089844 C 73.042969 22.082031 73.042969 22.082031 74.152344 21.921875 C 74.199219 21.914062 74.246094 21.902344 74.296875 21.890625 C 74.40625 21.863281 74.515625 21.832031 74.625 21.796875 C 74.664062 21.785156 74.703125 21.773438 74.742188 21.761719 C 75.652344 21.464844 76.390625 20.90625 76.832031 20.039062 C 77.371094 18.925781 77.433594 17.578125 77.054688 16.40625 C 76.75 15.523438 76.125 14.917969 75.300781 14.515625 C 72.800781 13.351562 68.945312 13.9375 66.746094 13.921875 C 66.746094 20.820312 66.746094 27.71875 66.746094 34.828125 C 65.121094 34.828125 63.496094 34.828125 61.824219 34.828125 C 61.824219 26.308594 61.824219 17.792969 61.824219 9.019531 Z M 61.824219 9.019531 "/>
<path style=" stroke:none;fill-rule:nonzero;fill:rgb(38.431373%,43.137255%,46.666667%);fill-opacity:1;" d="M 86.570312 9.019531 C 88.964844 9.015625 88.964844 9.015625 89.972656 9.015625 C 90.667969 9.015625 91.359375 9.011719 92.054688 9.011719 C 92.558594 9.011719 93.066406 9.011719 93.570312 9.011719 C 93.839844 9.011719 94.105469 9.007812 94.375 9.007812 C 94.625 9.007812 94.878906 9.007812 95.128906 9.007812 C 95.222656 9.007812 95.316406 9.007812 95.40625 9.007812 C 97.371094 9 99.28125 9.304688 100.738281 10.730469 C 101.042969 11.035156 101.265625 11.375 101.476562 11.746094 C 101.511719 11.8125 101.511719 11.8125 101.550781 11.878906 C 101.863281 12.460938 102.023438 13.09375 102.132812 13.742188 C 102.140625 13.785156 102.148438 13.828125 102.15625 13.871094 C 102.277344 14.65625 102.265625 15.449219 102.261719 16.242188 C 102.261719 16.355469 102.261719 16.472656 102.261719 16.585938 C 102.261719 16.832031 102.261719 17.082031 102.261719 17.328125 C 102.261719 17.683594 102.261719 18.042969 102.261719 18.398438 C 102.261719 18.976562 102.261719 19.558594 102.261719 20.136719 C 102.261719 20.699219 102.261719 21.261719 102.261719 21.824219 C 102.261719 21.875 102.261719 21.875 102.261719 21.929688 C 102.261719 22.101562 102.261719 22.277344 102.261719 22.449219 C 102.261719 23.894531 102.257812 25.335938 102.257812 26.777344 C 100.695312 26.78125 99.132812 26.78125 97.570312 26.78125 C 97.386719 26.78125 97.199219 26.78125 97.015625 26.78125 C 96.976562 26.78125 96.941406 26.78125 96.902344 26.78125 C 96.308594 26.78125 95.714844 26.78125 95.121094 26.78125 C 94.507812 26.78125 93.898438 26.78125 93.289062 26.78125 C 92.910156 26.78125 92.535156 26.785156 92.160156 26.785156 C 91.898438 26.785156 91.640625 26.785156 91.382812 26.785156 C 91.234375 26.785156 91.085938 26.785156 90.9375 26.785156 C 90.363281 26.785156 89.789062 26.78125 89.21875 26.757812 C 89.171875 26.757812 89.125 26.753906 89.078125 26.753906 C 87.550781 26.6875 85.988281 26.351562 84.824219 25.296875 C 84.773438 25.253906 84.773438 25.253906 84.726562 25.210938 C 83.769531 24.308594 83.359375 22.953125 83.296875 21.671875 C 83.246094 20.015625 83.511719 18.515625 84.601562 17.226562 C 85.34375 16.433594 86.355469 16.003906 87.390625 15.761719 C 87.421875 15.753906 87.449219 15.75 87.480469 15.742188 C 88.34375 15.550781 89.222656 15.574219 90.101562 15.578125 C 90.289062 15.578125 90.476562 15.578125 90.667969 15.578125 C 91.023438 15.578125 91.378906 15.578125 91.734375 15.578125 C 92.214844 15.582031 92.695312 15.582031 93.179688 15.582031 C 93.9375 15.582031 94.691406 15.585938 95.449219 15.585938 C 95.433594 17.113281 95.417969 18.640625 95.402344 20.210938 C 94.96875 20.214844 94.53125 20.214844 94.078125 20.214844 C 93.800781 20.21875 93.523438 20.21875 93.246094 20.222656 C 92.804688 20.222656 92.367188 20.226562 91.925781 20.226562 C 91.605469 20.226562 91.285156 20.230469 90.964844 20.230469 C 90.792969 20.234375 90.625 20.234375 90.453125 20.234375 C 90.265625 20.234375 90.074219 20.234375 89.882812 20.238281 C 89.828125 20.238281 89.773438 20.238281 89.71875 20.238281 C 89.21875 20.242188 88.683594 20.269531 88.273438 20.582031 C 88.070312 20.808594 88.023438 20.988281 88.027344 21.292969 C 88.054688 21.496094 88.132812 21.636719 88.273438 21.785156 C 88.738281 22.132812 89.382812 22.074219 89.929688 22.074219 C 90.015625 22.078125 90.097656 22.078125 90.179688 22.078125 C 90.40625 22.078125 90.632812 22.078125 90.859375 22.078125 C 91.09375 22.082031 91.328125 22.082031 91.566406 22.082031 C 92.011719 22.085938 92.457031 22.085938 92.90625 22.089844 C 93.414062 22.089844 93.921875 22.09375 94.429688 22.09375 C 95.476562 22.101562 96.519531 22.105469 97.566406 22.109375 C 97.570312 21.230469 97.570312 20.355469 97.574219 19.480469 C 97.574219 19.074219 97.574219 18.667969 97.578125 18.261719 C 97.578125 17.90625 97.578125 17.554688 97.578125 17.199219 C 97.578125 17.011719 97.578125 16.824219 97.582031 16.636719 C 97.582031 16.460938 97.582031 16.28125 97.582031 16.105469 C 97.582031 16.039062 97.582031 15.976562 97.582031 15.910156 C 97.585938 15.308594 97.546875 14.683594 97.152344 14.199219 C 96.558594 13.628906 95.753906 13.675781 94.988281 13.675781 C 94.898438 13.675781 94.804688 13.675781 94.714844 13.675781 C 94.464844 13.671875 94.21875 13.671875 93.96875 13.671875 C 93.707031 13.671875 93.449219 13.667969 93.1875 13.667969 C 92.695312 13.664062 92.203125 13.664062 91.710938 13.664062 C 91.046875 13.660156 90.378906 13.65625 89.714844 13.65625 C 88.667969 13.652344 87.621094 13.648438 86.570312 13.644531 C 86.570312 12.117188 86.570312 10.589844 86.570312 9.019531 Z M 86.570312 9.019531 "/>
<path style=" stroke:none;fill-rule:nonzero;fill:rgb(38.431373%,43.137255%,46.666667%);fill-opacity:1;" d="M 131.71875 11.3125 C 132.097656 11.652344 132.40625 12.035156 132.710938 12.441406 C 132.738281 12.480469 132.769531 12.519531 132.796875 12.558594 C 134.183594 14.480469 134.710938 16.90625 134.34375 19.238281 C 133.972656 21.378906 132.890625 23.460938 131.144531 24.789062 C 131.101562 24.824219 131.058594 24.859375 131.015625 24.894531 C 129.726562 25.898438 128.199219 26.46875 126.59375 26.6875 C 126.523438 26.695312 126.523438 26.695312 126.457031 26.703125 C 124.699219 26.890625 122.898438 26.5625 121.347656 25.714844 C 121.320312 25.699219 121.292969 25.683594 121.261719 25.667969 C 120.867188 25.457031 120.503906 25.210938 120.152344 24.929688 C 120.105469 24.890625 120.058594 24.851562 120.007812 24.8125 C 119.386719 24.304688 118.828125 23.734375 118.359375 23.078125 C 118.339844 23.050781 118.320312 23.027344 118.300781 23 C 116.875 21.007812 116.4375 18.539062 116.816406 16.132812 C 117.054688 14.753906 117.613281 13.511719 118.449219 12.394531 C 118.480469 12.351562 118.511719 12.308594 118.542969 12.265625 C 119.945312 10.441406 122.066406 9.195312 124.335938 8.894531 C 127.082031 8.566406 129.667969 9.484375 131.71875 11.3125 Z M 122.5 14.734375 C 121.671875 15.660156 121.394531 16.890625 121.445312 18.109375 C 121.507812 19.179688 121.84375 20.136719 122.542969 20.953125 C 122.574219 20.984375 122.601562 21.019531 122.632812 21.054688 C 123.304688 21.777344 124.25 22.175781 125.222656 22.210938 C 126.449219 22.238281 127.457031 21.964844 128.371094 21.105469 C 129.167969 20.328125 129.605469 19.246094 129.644531 18.140625 C 129.660156 16.75 129.421875 15.546875 128.429688 14.515625 C 127.863281 13.949219 127.179688 13.625 126.40625 13.457031 C 126.347656 13.445312 126.347656 13.445312 126.285156 13.433594 C 124.820312 13.246094 123.515625 13.648438 122.5 14.734375 Z M 122.5 14.734375 "/>
<path style=" stroke:none;fill-rule:nonzero;fill:rgb(38.431373%,43.137255%,46.666667%);fill-opacity:1;" d="M 113.464844 9.015625 C 113.546875 9.015625 113.632812 9.015625 113.714844 9.015625 C 114.015625 9.015625 114.3125 9.015625 114.613281 9.015625 C 115.625 9.015625 115.625 9.015625 116.65625 9.019531 C 116.65625 10.546875 116.65625 12.070312 116.65625 13.644531 C 114.808594 13.660156 114.808594 13.660156 114.234375 13.664062 C 111.488281 13.679688 111.488281 13.679688 109.113281 14.9375 C 109.082031 14.964844 109.054688 14.988281 109.023438 15.011719 C 108.320312 15.65625 108.039062 16.695312 107.960938 17.621094 C 107.957031 17.753906 107.953125 17.886719 107.953125 18.019531 C 107.953125 18.058594 107.953125 18.09375 107.953125 18.132812 C 107.953125 18.257812 107.953125 18.382812 107.953125 18.507812 C 107.953125 18.597656 107.953125 18.691406 107.953125 18.78125 C 107.949219 19.023438 107.949219 19.269531 107.949219 19.511719 C 107.945312 19.769531 107.945312 20.023438 107.945312 20.277344 C 107.941406 20.761719 107.941406 21.246094 107.9375 21.730469 C 107.933594 22.382812 107.933594 23.039062 107.929688 23.691406 C 107.925781 24.71875 107.921875 25.75 107.914062 26.777344 C 106.351562 26.777344 104.789062 26.777344 103.179688 26.777344 C 103.171875 24.34375 103.171875 24.34375 103.171875 23.316406 C 103.171875 22.609375 103.167969 21.902344 103.167969 21.195312 C 103.167969 20.683594 103.164062 20.167969 103.164062 19.652344 C 103.164062 19.378906 103.164062 19.109375 103.164062 18.835938 C 103.15625 16.523438 103.289062 14.238281 104.695312 12.300781 C 104.722656 12.261719 104.753906 12.222656 104.78125 12.179688 C 105.425781 11.332031 106.246094 10.707031 107.179688 10.222656 C 107.210938 10.207031 107.238281 10.191406 107.269531 10.171875 C 109.15625 9.183594 111.375 9.007812 113.464844 9.015625 Z M 113.464844 9.015625 "/>
</g>
</svg>
