<?xml version="1.0" encoding="UTF-8"?>
<svg xmlns="http://www.w3.org/2000/svg" xmlns:xlink="http://www.w3.org/1999/xlink" width="375px" height="100px" viewBox="0 0 375 100" version="1.1">
<g id="surface1">
<path style=" stroke:none;fill-rule:nonzero;fill:rgb(7.058824%,68.235296%,93.725491%);fill-opacity:1;" d="M 61.027344 14.550781 C 61.335938 14.839844 61.65625 15.121094 61.976562 15.398438 C 62.609375 15.964844 63.179688 16.582031 63.753906 17.203125 C 64.421875 17.921875 65.109375 18.617188 65.808594 19.300781 C 66.195312 19.6875 66.570312 20.074219 66.925781 20.488281 C 67.421875 21.0625 67.957031 21.59375 68.5 22.125 C 69.570312 23.179688 69.570312 23.179688 70.058594 23.746094 C 70.570312 24.339844 71.128906 24.886719 71.6875 25.4375 C 72.324219 26.066406 72.945312 26.695312 73.527344 27.375 C 73.953125 27.855469 74.417969 28.300781 74.875 28.75 C 75.945312 29.804688 75.945312 29.804688 76.433594 30.371094 C 76.945312 30.964844 77.503906 31.511719 78.0625 32.0625 C 78.699219 32.6875 79.316406 33.316406 79.898438 33.996094 C 80.347656 34.5 80.832031 34.964844 81.3125 35.4375 C 81.949219 36.066406 82.570312 36.695312 83.152344 37.375 C 83.578125 37.855469 84.042969 38.300781 84.5 38.75 C 85.570312 39.804688 85.570312 39.804688 86.058594 40.371094 C 86.570312 40.964844 87.128906 41.511719 87.6875 42.0625 C 88.324219 42.691406 88.945312 43.320312 89.527344 44 C 89.953125 44.480469 90.417969 44.925781 90.875 45.375 C 91.503906 45.992188 92.117188 46.613281 92.6875 47.289062 C 92.863281 47.488281 93.050781 47.664062 93.25 47.84375 C 93.5 48.125 93.5 48.125 93.492188 48.355469 C 93.324219 48.746094 93.0625 48.941406 92.742188 49.21875 C 91.996094 49.878906 91.292969 50.570312 90.597656 51.28125 C 90.207031 51.679688 89.8125 52.0625 89.390625 52.421875 C 88.789062 52.9375 88.242188 53.5 87.6875 54.0625 C 87.0625 54.699219 86.433594 55.316406 85.753906 55.898438 C 85.25 56.347656 84.785156 56.832031 84.3125 57.3125 C 83.683594 57.949219 83.054688 58.570312 82.375 59.152344 C 81.894531 59.578125 81.449219 60.042969 81 60.5 C 79.945312 61.570312 79.945312 61.570312 79.378906 62.058594 C 78.785156 62.570312 78.238281 63.128906 77.6875 63.6875 C 77.058594 64.324219 76.429688 64.945312 75.75 65.527344 C 75.269531 65.953125 74.824219 66.417969 74.375 66.875 C 73.320312 67.945312 73.320312 67.945312 72.753906 68.433594 C 72.160156 68.945312 71.613281 69.503906 71.0625 70.0625 C 70.433594 70.699219 69.804688 71.320312 69.125 71.902344 C 68.644531 72.328125 68.199219 72.792969 67.75 73.25 C 66.695312 74.320312 66.695312 74.320312 66.128906 74.808594 C 65.535156 75.320312 64.988281 75.878906 64.4375 76.4375 C 63.8125 77.074219 63.183594 77.691406 62.503906 78.273438 C 62 78.722656 61.535156 79.207031 61.0625 79.6875 C 60.425781 80.335938 59.785156 80.964844 59.09375 81.558594 C 58.804688 81.8125 58.539062 82.082031 58.273438 82.359375 C 57.738281 82.902344 57.171875 83.382812 56.578125 83.859375 C 56.289062 84.09375 56.019531 84.332031 55.75 84.585938 C 52.734375 87.28125 48.921875 89.582031 45 90.625 C 44.855469 90.664062 44.855469 90.664062 44.707031 90.703125 C 42.082031 91.378906 39.132812 91.421875 36.5 90.75 C 36.375 90.71875 36.375 90.71875 36.242188 90.6875 C 33.332031 89.960938 30.699219 88.503906 28.375 86.625 C 28.308594 86.570312 28.242188 86.519531 28.175781 86.464844 C 26.417969 85.035156 24.742188 83.4375 23.375 81.625 C 23.320312 81.554688 23.269531 81.488281 23.214844 81.414062 C 19.988281 77.203125 18.046875 72.296875 18.726562 66.925781 C 19.371094 62.449219 21.519531 58.570312 24.375 55.125 C 24.472656 55.003906 24.574219 54.882812 24.675781 54.761719 C 25.65625 53.585938 26.714844 52.5 27.800781 51.421875 C 28.097656 51.128906 28.386719 50.839844 28.679688 50.546875 C 28.871094 50.359375 29.058594 50.167969 29.25 49.980469 C 29.332031 49.894531 29.417969 49.808594 29.507812 49.722656 C 30 49.234375 30.503906 48.773438 31.027344 48.320312 C 31.296875 48.082031 31.554688 47.835938 31.804688 47.578125 C 31.898438 47.484375 31.992188 47.386719 32.089844 47.289062 C 32.183594 47.195312 32.277344 47.097656 32.375 47 C 33.429688 45.929688 33.429688 45.929688 33.996094 45.441406 C 34.589844 44.929688 35.136719 44.371094 35.6875 43.8125 C 36.3125 43.175781 36.941406 42.558594 37.621094 41.976562 C 38.125 41.527344 38.589844 41.042969 39.0625 40.5625 C 39.691406 39.925781 40.320312 39.304688 41 38.722656 C 41.582031 38.203125 42.117188 37.632812 42.660156 37.074219 C 43.238281 36.488281 43.824219 35.96875 44.5 35.5 C 46.121094 37.097656 46.121094 37.097656 46.789062 37.890625 C 47.125 38.269531 47.492188 38.617188 47.851562 38.972656 C 48.175781 39.300781 48.472656 39.644531 48.773438 39.996094 C 49.027344 40.28125 49.292969 40.546875 49.5625 40.8125 C 49.90625 41.152344 50.238281 41.5 50.554688 41.867188 C 50.894531 42.265625 51.253906 42.632812 51.625 43 C 52.074219 43.441406 52.492188 43.898438 52.902344 44.375 C 53.242188 44.757812 53.613281 45.113281 53.976562 45.472656 C 54.300781 45.800781 54.597656 46.144531 54.898438 46.492188 C 55.246094 46.886719 55.621094 47.25 56 47.613281 C 56.621094 48.257812 56.621094 48.257812 56.628906 48.613281 C 56.4375 49.003906 56.128906 49.25 55.804688 49.53125 C 55.039062 50.214844 54.3125 50.929688 53.589844 51.664062 C 53.203125 52.058594 52.808594 52.4375 52.390625 52.796875 C 51.789062 53.3125 51.242188 53.875 50.6875 54.4375 C 50.058594 55.074219 49.429688 55.695312 48.75 56.277344 C 48.269531 56.703125 47.824219 57.167969 47.375 57.625 C 46.320312 58.695312 46.320312 58.695312 45.753906 59.183594 C 45.160156 59.695312 44.613281 60.253906 44.0625 60.8125 C 43.433594 61.453125 42.800781 62.074219 42.121094 62.660156 C 39.199219 65.207031 39.199219 65.207031 37.71875 68.65625 C 37.6875 69.6875 37.945312 70.457031 38.640625 71.226562 C 39.28125 71.816406 40.011719 72.078125 40.867188 72.1875 C 43.25 72.035156 45.375 69.8125 46.941406 68.179688 C 47.191406 67.933594 47.445312 67.703125 47.710938 67.476562 C 48.316406 66.949219 48.875 66.382812 49.4375 65.8125 C 50.0625 65.175781 50.691406 64.558594 51.371094 63.976562 C 51.875 63.527344 52.339844 63.042969 52.8125 62.5625 C 53.441406 61.925781 54.070312 61.304688 54.75 60.722656 C 55.230469 60.296875 55.675781 59.832031 56.125 59.375 C 57.179688 58.304688 57.179688 58.304688 57.746094 57.816406 C 58.339844 57.304688 58.886719 56.746094 59.4375 56.1875 C 60.066406 55.550781 60.695312 54.929688 61.375 54.347656 C 61.855469 53.921875 62.300781 53.457031 62.75 53 C 63.800781 51.929688 63.800781 51.929688 64.371094 51.441406 C 64.972656 50.925781 65.527344 50.363281 66.085938 49.796875 C 66.191406 49.691406 66.292969 49.589844 66.398438 49.480469 C 66.597656 49.28125 66.792969 49.085938 66.992188 48.886719 C 67.285156 48.589844 67.578125 48.292969 67.875 48 C 67.097656 47.152344 66.320312 46.3125 65.5 45.503906 C 65.265625 45.265625 65.046875 45.019531 64.828125 44.765625 C 64.46875 44.34375 64.082031 43.953125 63.6875 43.5625 C 63.222656 43.105469 62.78125 42.632812 62.359375 42.136719 C 62.066406 41.808594 61.75 41.496094 61.4375 41.1875 C 61.050781 40.804688 60.671875 40.421875 60.320312 40.007812 C 59.941406 39.566406 59.539062 39.15625 59.125 38.75 C 58.636719 38.269531 58.175781 37.78125 57.730469 37.257812 C 57.378906 36.867188 57.003906 36.5 56.628906 36.132812 C 56.226562 35.734375 55.851562 35.320312 55.484375 34.886719 C 55.191406 34.558594 54.875 34.246094 54.5625 33.9375 C 54.097656 33.480469 53.65625 33.007812 53.234375 32.511719 C 52.882812 32.121094 52.507812 31.753906 52.132812 31.382812 C 51.796875 31.054688 51.476562 30.714844 51.171875 30.359375 C 49.777344 28.742188 48.003906 27.15625 45.78125 26.957031 C 43.3125 26.933594 41.578125 27.984375 39.824219 29.683594 C 39.613281 29.886719 39.398438 30.082031 39.183594 30.28125 C 38.25 31.140625 37.34375 32.019531 36.453125 32.925781 C 36.066406 33.316406 35.679688 33.691406 35.261719 34.050781 C 34.6875 34.546875 34.15625 35.082031 33.625 35.625 C 32.570312 36.695312 32.570312 36.695312 32.003906 37.183594 C 31.410156 37.695312 30.863281 38.253906 30.3125 38.8125 C 29.683594 39.449219 29.054688 40.070312 28.375 40.652344 C 27.894531 41.078125 27.449219 41.542969 27 42 C 25.945312 43.070312 25.945312 43.070312 25.378906 43.558594 C 24.785156 44.070312 24.238281 44.628906 23.6875 45.1875 C 23.058594 45.824219 22.429688 46.445312 21.75 47.027344 C 21.269531 47.453125 20.824219 47.917969 20.375 48.375 C 19.320312 49.445312 19.320312 49.445312 18.753906 49.933594 C 18.160156 50.445312 17.613281 51.003906 17.0625 51.5625 C 16.421875 52.210938 15.78125 52.847656 15.089844 53.4375 C 14.882812 53.617188 14.691406 53.804688 14.5 54 C 14.136719 53.835938 13.878906 53.660156 13.597656 53.378906 C 13.488281 53.265625 13.488281 53.265625 13.375 53.15625 C 13.265625 53.039062 13.265625 53.039062 13.148438 52.921875 C 13.039062 52.8125 13.039062 52.8125 12.925781 52.699219 C 12.546875 52.316406 12.179688 51.925781 11.832031 51.515625 C 11.3125 50.917969 10.75 50.367188 10.1875 49.8125 C 9.550781 49.183594 8.929688 48.554688 8.347656 47.875 C 7.921875 47.394531 7.457031 46.949219 7 46.5 C 5.929688 45.445312 5.929688 45.445312 5.441406 44.878906 C 4.925781 44.277344 4.363281 43.726562 3.796875 43.171875 C 3.167969 42.550781 2.550781 41.941406 2 41.25 C 2.175781 40.847656 2.390625 40.582031 2.703125 40.273438 C 2.78125 40.195312 2.859375 40.117188 2.941406 40.035156 C 3.195312 39.800781 3.453125 39.574219 3.714844 39.351562 C 4.296875 38.84375 4.835938 38.300781 5.375 37.75 C 6.429688 36.679688 6.429688 36.679688 6.996094 36.191406 C 7.589844 35.679688 8.136719 35.121094 8.6875 34.5625 C 9.3125 33.925781 9.941406 33.308594 10.621094 32.726562 C 11.125 32.277344 11.589844 31.792969 12.0625 31.3125 C 12.691406 30.675781 13.320312 30.054688 14 29.472656 C 14.480469 29.046875 14.925781 28.582031 15.375 28.125 C 16.429688 27.054688 16.429688 27.054688 16.996094 26.566406 C 17.589844 26.054688 18.136719 25.496094 18.6875 24.9375 C 19.316406 24.300781 19.945312 23.679688 20.625 23.097656 C 21.105469 22.671875 21.550781 22.207031 22 21.75 C 23.054688 20.679688 23.054688 20.679688 23.621094 20.191406 C 24.214844 19.679688 24.761719 19.121094 25.3125 18.5625 C 25.953125 17.914062 26.59375 17.28125 27.285156 16.6875 C 27.550781 16.457031 27.796875 16.207031 28.039062 15.953125 C 28.546875 15.441406 29.082031 14.988281 29.644531 14.539062 C 29.878906 14.347656 30.109375 14.15625 30.335938 13.957031 C 39.382812 6.152344 50.976562 5.6875 61.027344 14.550781 Z M 61.027344 14.550781 "/>
<path style=" stroke:none;fill-rule:nonzero;fill:rgb(38.431373%,43.137255%,46.666667%);fill-opacity:1;" d="M 116.195312 24.34375 C 116.320312 24.34375 116.445312 24.34375 116.574219 24.34375 C 120.886719 24.347656 126.464844 24.5625 129.742188 27.820312 C 129.871094 27.960938 130 28.105469 130.125 28.25 C 130.5 28.082031 130.753906 27.894531 131.046875 27.609375 C 132.785156 26.074219 135.074219 25.355469 137.304688 24.898438 C 137.421875 24.875 137.542969 24.851562 137.664062 24.824219 C 139.808594 24.417969 141.964844 24.328125 144.140625 24.335938 C 144.261719 24.335938 144.386719 24.335938 144.511719 24.335938 C 150.175781 24.355469 156.0625 25.367188 160.25 29.5 C 162.328125 31.71875 163.46875 34.539062 164 37.5 C 164.019531 37.617188 164.042969 37.734375 164.0625 37.851562 C 164.3125 39.4375 164.285156 41.019531 164.277344 42.617188 C 164.277344 42.941406 164.277344 43.269531 164.277344 43.59375 C 164.277344 44.289062 164.277344 44.988281 164.277344 45.683594 C 164.273438 46.691406 164.273438 47.699219 164.273438 48.707031 C 164.273438 50.34375 164.269531 51.980469 164.269531 53.617188 C 164.265625 55.203125 164.265625 56.792969 164.265625 58.378906 C 164.261719 58.527344 164.261719 58.527344 164.261719 58.675781 C 164.261719 59.167969 164.261719 59.660156 164.261719 60.152344 C 164.261719 64.226562 164.253906 68.300781 164.25 72.375 C 160.125 72.375 156 72.375 151.75 72.375 C 151.75 71.445312 151.746094 70.515625 151.746094 69.554688 C 151.742188 66.574219 151.734375 63.59375 151.726562 60.609375 C 151.726562 60.148438 151.726562 59.683594 151.722656 59.21875 C 151.722656 59.128906 151.722656 59.035156 151.722656 58.941406 C 151.71875 57.449219 151.71875 55.957031 151.714844 54.464844 C 151.714844 52.933594 151.710938 51.398438 151.707031 49.867188 C 151.703125 48.921875 151.699219 47.980469 151.699219 47.035156 C 151.699219 46.308594 151.699219 45.582031 151.695312 44.855469 C 151.695312 44.5625 151.695312 44.265625 151.695312 43.96875 C 151.71875 41.097656 151.71875 41.097656 150.375 38.625 C 148.710938 37.132812 146.5625 36.828125 144.414062 36.835938 C 144.160156 36.835938 143.902344 36.832031 143.644531 36.828125 C 142.117188 36.820312 140.566406 36.972656 139.195312 37.703125 C 139.113281 37.746094 139.027344 37.789062 138.941406 37.835938 C 137.753906 38.488281 137.203125 39.324219 136.738281 40.585938 C 136.496094 41.476562 136.480469 42.359375 136.480469 43.273438 C 136.480469 43.460938 136.480469 43.460938 136.476562 43.652344 C 136.476562 44.070312 136.476562 44.484375 136.472656 44.902344 C 136.472656 45.203125 136.472656 45.5 136.46875 45.800781 C 136.46875 46.527344 136.464844 47.253906 136.460938 47.980469 C 136.460938 48.828125 136.457031 49.675781 136.453125 50.523438 C 136.449219 52.03125 136.441406 53.542969 136.4375 55.054688 C 136.433594 56.519531 136.425781 57.984375 136.421875 59.453125 C 136.421875 59.589844 136.421875 59.589844 136.421875 59.726562 C 136.417969 60.179688 136.417969 60.632812 136.414062 61.089844 C 136.402344 64.851562 136.386719 68.613281 136.375 72.375 C 132.25 72.375 128.125 72.375 123.875 72.375 C 123.875 71.445312 123.871094 70.515625 123.871094 69.554688 C 123.867188 66.574219 123.859375 63.59375 123.851562 60.609375 C 123.851562 60.148438 123.851562 59.683594 123.847656 59.21875 C 123.847656 59.128906 123.847656 59.035156 123.847656 58.941406 C 123.84375 57.449219 123.84375 55.957031 123.839844 54.464844 C 123.839844 52.933594 123.835938 51.398438 123.832031 49.867188 C 123.828125 48.921875 123.824219 47.980469 123.824219 47.035156 C 123.824219 46.308594 123.824219 45.582031 123.820312 44.855469 C 123.820312 44.5625 123.820312 44.265625 123.820312 43.96875 C 123.84375 41.097656 123.84375 41.097656 122.5 38.625 C 120.835938 37.132812 118.683594 36.828125 116.535156 36.835938 C 116.273438 36.835938 116.015625 36.832031 115.757812 36.828125 C 113.765625 36.820312 111.691406 37.1875 110.121094 38.5 C 108.839844 39.808594 108.605469 41.515625 108.605469 43.257812 C 108.605469 43.382812 108.605469 43.507812 108.601562 43.636719 C 108.601562 44.054688 108.601562 44.46875 108.597656 44.886719 C 108.597656 45.1875 108.597656 45.488281 108.59375 45.785156 C 108.59375 46.515625 108.589844 47.242188 108.585938 47.96875 C 108.585938 48.816406 108.582031 49.664062 108.578125 50.511719 C 108.574219 52.023438 108.566406 53.53125 108.5625 55.042969 C 108.558594 56.511719 108.550781 57.976562 108.546875 59.445312 C 108.546875 59.535156 108.546875 59.625 108.546875 59.71875 C 108.542969 60.171875 108.542969 60.628906 108.539062 61.082031 C 108.527344 64.847656 108.511719 68.609375 108.5 72.375 C 104.375 72.375 100.25 72.375 96 72.375 C 95.996094 68.339844 95.988281 64.308594 95.988281 60.273438 C 95.988281 59.796875 95.988281 59.316406 95.984375 58.839844 C 95.984375 58.746094 95.984375 58.648438 95.984375 58.550781 C 95.984375 57.019531 95.984375 55.484375 95.980469 53.949219 C 95.976562 52.375 95.976562 50.796875 95.976562 49.21875 C 95.976562 48.25 95.976562 47.277344 95.972656 46.304688 C 95.972656 45.558594 95.972656 44.808594 95.972656 44.0625 C 95.972656 43.757812 95.972656 43.453125 95.96875 43.148438 C 95.957031 38.589844 96.417969 33.667969 99.625 30.125 C 99.75 29.972656 99.75 29.972656 99.878906 29.816406 C 102.988281 26.152344 108.089844 24.882812 112.675781 24.425781 C 113.847656 24.335938 115.023438 24.34375 116.195312 24.34375 Z M 116.195312 24.34375 "/>
<path style=" stroke:none;fill-rule:nonzero;fill:rgb(38.431373%,43.137255%,46.666667%);fill-opacity:1;" d="M 168 24.375 C 210.125 24.375 210.125 24.375 217 31 C 217.105469 31.097656 217.210938 31.191406 217.320312 31.289062 C 221.027344 34.773438 222.515625 40.097656 223 45 C 223.015625 45.164062 223.03125 45.328125 223.050781 45.496094 C 223.472656 50.671875 222.839844 56.023438 220.625 60.75 C 220.585938 60.832031 220.546875 60.917969 220.507812 61.003906 C 218.300781 65.628906 214.058594 68.816406 209.3125 70.519531 C 203.945312 72.363281 198.324219 72.402344 192.710938 72.382812 C 191.570312 72.378906 190.425781 72.378906 189.25 72.375 C 189.25 68.207031 189.25 64.042969 189.25 59.75 C 193.96875 59.710938 193.96875 59.710938 195.441406 59.703125 C 198.488281 59.6875 198.488281 59.6875 201.5 59.25 C 201.628906 59.222656 201.757812 59.195312 201.890625 59.164062 C 202.195312 59.089844 202.492188 59.007812 202.789062 58.914062 C 202.890625 58.882812 202.992188 58.851562 203.097656 58.816406 C 205.578125 58.011719 207.582031 56.5 208.78125 54.15625 C 210.246094 51.15625 210.414062 47.503906 209.386719 44.339844 C 208.5625 41.957031 206.863281 40.320312 204.625 39.226562 C 197.828125 36.085938 187.355469 37.667969 181.375 37.625 C 181.375 56.269531 181.375 74.914062 181.375 94.125 C 176.960938 94.125 172.546875 94.125 168 94.125 C 168 71.109375 168 48.089844 168 24.375 Z M 168 24.375 "/>
<path style=" stroke:none;fill-rule:nonzero;fill:rgb(38.431373%,43.137255%,46.666667%);fill-opacity:1;" d="M 235.25 24.375 C 241.753906 24.363281 241.753906 24.363281 244.492188 24.363281 C 246.378906 24.359375 248.261719 24.359375 250.148438 24.355469 C 251.523438 24.355469 252.898438 24.351562 254.269531 24.351562 C 254.996094 24.351562 255.722656 24.351562 256.449219 24.347656 C 257.136719 24.347656 257.820312 24.347656 258.507812 24.347656 C 258.757812 24.347656 259.007812 24.347656 259.257812 24.34375 C 264.59375 24.324219 269.78125 25.152344 273.75 29 C 274.574219 29.824219 275.175781 30.738281 275.75 31.75 C 275.851562 31.925781 275.851562 31.925781 275.953125 32.105469 C 276.796875 33.675781 277.242188 35.390625 277.539062 37.140625 C 277.558594 37.257812 277.578125 37.371094 277.597656 37.492188 C 277.933594 39.609375 277.894531 41.757812 277.890625 43.894531 C 277.890625 44.207031 277.890625 44.519531 277.890625 44.828125 C 277.890625 45.496094 277.890625 46.164062 277.886719 46.832031 C 277.886719 47.796875 277.886719 48.761719 277.886719 49.726562 C 277.886719 51.289062 277.886719 52.855469 277.882812 54.421875 C 277.882812 55.941406 277.882812 57.460938 277.882812 58.980469 C 277.882812 59.121094 277.882812 59.121094 277.882812 59.265625 C 277.882812 59.734375 277.882812 60.207031 277.882812 60.679688 C 277.878906 64.578125 277.878906 68.476562 277.875 72.375 C 273.628906 72.378906 269.382812 72.378906 265.136719 72.382812 C 264.632812 72.382812 264.128906 72.382812 263.628906 72.382812 C 263.527344 72.382812 263.425781 72.382812 263.324219 72.382812 C 261.710938 72.382812 260.09375 72.382812 258.480469 72.382812 C 256.820312 72.386719 255.160156 72.386719 253.5 72.386719 C 252.476562 72.386719 251.453125 72.386719 250.433594 72.386719 C 249.730469 72.390625 249.023438 72.390625 248.320312 72.390625 C 247.917969 72.390625 247.511719 72.390625 247.109375 72.390625 C 245.550781 72.390625 243.996094 72.378906 242.4375 72.320312 C 242.316406 72.316406 242.191406 72.3125 242.066406 72.308594 C 237.914062 72.128906 233.664062 71.21875 230.5 68.375 C 230.367188 68.257812 230.367188 68.257812 230.234375 68.140625 C 227.632812 65.699219 226.523438 62.039062 226.355469 58.570312 C 226.210938 54.09375 226.929688 50.039062 229.894531 46.558594 C 231.914062 44.417969 234.660156 43.257812 237.476562 42.601562 C 237.558594 42.582031 237.640625 42.5625 237.722656 42.542969 C 240.066406 42.03125 242.453125 42.089844 244.839844 42.101562 C 245.351562 42.101562 245.863281 42.101562 246.375 42.101562 C 247.34375 42.101562 248.308594 42.105469 249.277344 42.105469 C 250.585938 42.109375 251.894531 42.113281 253.203125 42.113281 C 255.261719 42.117188 257.316406 42.121094 259.375 42.125 C 259.332031 46.25 259.292969 50.375 259.25 54.625 C 258.0625 54.628906 256.875 54.632812 255.652344 54.640625 C 254.898438 54.644531 254.140625 54.648438 253.386719 54.652344 C 252.191406 54.65625 250.996094 54.664062 249.796875 54.667969 C 248.925781 54.671875 248.054688 54.675781 247.183594 54.679688 C 246.722656 54.683594 246.261719 54.6875 245.800781 54.6875 C 245.285156 54.6875 244.765625 54.691406 244.25 54.695312 C 244.101562 54.695312 243.949219 54.695312 243.796875 54.695312 C 242.4375 54.710938 240.988281 54.78125 239.875 55.625 C 239.316406 56.242188 239.195312 56.730469 239.207031 57.546875 C 239.277344 58.09375 239.496094 58.476562 239.875 58.875 C 241.140625 59.816406 242.886719 59.664062 244.378906 59.664062 C 244.605469 59.667969 244.832031 59.667969 245.058594 59.667969 C 245.671875 59.671875 246.285156 59.675781 246.894531 59.675781 C 247.539062 59.675781 248.179688 59.679688 248.820312 59.683594 C 250.03125 59.691406 251.246094 59.695312 252.457031 59.699219 C 253.839844 59.703125 255.222656 59.710938 256.601562 59.714844 C 259.445312 59.730469 262.285156 59.738281 265.125 59.75 C 265.132812 57.382812 265.140625 55.019531 265.144531 52.652344 C 265.144531 51.554688 265.148438 50.457031 265.152344 49.359375 C 265.15625 48.398438 265.160156 47.441406 265.160156 46.484375 C 265.160156 45.976562 265.160156 45.46875 265.164062 44.964844 C 265.167969 44.484375 265.167969 44.007812 265.167969 43.527344 C 265.167969 43.355469 265.167969 43.179688 265.167969 43.003906 C 265.183594 41.375 265.070312 39.683594 264 38.375 C 262.390625 36.832031 260.203125 36.960938 258.125 36.960938 C 257.875 36.957031 257.625 36.957031 257.375 36.957031 C 256.699219 36.953125 256.023438 36.949219 255.347656 36.949219 C 254.640625 36.949219 253.933594 36.945312 253.226562 36.941406 C 251.890625 36.933594 250.554688 36.929688 249.214844 36.925781 C 247.40625 36.921875 245.597656 36.914062 243.789062 36.90625 C 240.945312 36.894531 238.097656 36.882812 235.25 36.875 C 235.25 32.75 235.25 28.625 235.25 24.375 Z M 235.25 24.375 "/>
<path style=" stroke:none;fill-rule:nonzero;fill:rgb(38.431373%,43.137255%,46.666667%);fill-opacity:1;" d="M 357.929688 30.574219 C 358.957031 31.496094 359.800781 32.523438 360.625 33.625 C 360.703125 33.730469 360.78125 33.832031 360.863281 33.941406 C 364.628906 39.132812 366.0625 45.6875 365.066406 52 C 364.054688 57.78125 361.121094 63.410156 356.375 67 C 356.257812 67.09375 356.140625 67.183594 356.023438 67.277344 C 352.519531 69.996094 348.371094 71.539062 344 72.125 C 343.816406 72.148438 343.816406 72.148438 343.628906 72.175781 C 338.863281 72.683594 333.957031 71.792969 329.75 69.5 C 329.671875 69.460938 329.597656 69.417969 329.519531 69.375 C 328.441406 68.796875 327.453125 68.140625 326.5 67.375 C 326.371094 67.273438 326.242188 67.167969 326.109375 67.0625 C 324.421875 65.6875 322.902344 64.144531 321.625 62.375 C 321.574219 62.304688 321.519531 62.230469 321.46875 62.160156 C 317.597656 56.773438 316.402344 50.105469 317.4375 43.605469 C 318.085938 39.875 319.601562 36.515625 321.875 33.5 C 321.960938 33.382812 322.042969 33.269531 322.132812 33.148438 C 325.941406 28.222656 331.699219 24.851562 337.871094 24.039062 C 345.332031 23.152344 352.359375 25.632812 357.929688 30.574219 Z M 332.875 39.820312 C 330.625 42.324219 329.878906 45.648438 330.011719 48.941406 C 330.191406 51.839844 331.09375 54.429688 333 56.625 C 333.082031 56.71875 333.160156 56.8125 333.246094 56.90625 C 335.066406 58.859375 337.640625 59.941406 340.277344 60.035156 C 343.609375 60.105469 346.351562 59.359375 348.835938 57.042969 C 351.003906 54.941406 352.195312 52.023438 352.292969 49.023438 C 352.339844 45.273438 351.6875 42.015625 348.992188 39.230469 C 347.453125 37.703125 345.597656 36.828125 343.5 36.375 C 343.332031 36.339844 343.332031 36.339844 343.164062 36.300781 C 339.183594 35.804688 335.644531 36.882812 332.875 39.820312 Z M 332.875 39.820312 "/>
<path style=" stroke:none;fill-rule:nonzero;fill:rgb(38.431373%,43.137255%,46.666667%);fill-opacity:1;" d="M 308.332031 24.363281 C 308.554688 24.363281 308.78125 24.363281 309.003906 24.363281 C 309.820312 24.363281 310.636719 24.367188 311.453125 24.367188 C 314.199219 24.371094 314.199219 24.371094 317 24.375 C 317 28.5 317 32.625 317 36.875 C 311.984375 36.921875 311.984375 36.921875 310.417969 36.933594 C 302.960938 36.976562 302.960938 36.976562 296.5 40.375 C 296.421875 40.441406 296.34375 40.507812 296.265625 40.574219 C 294.351562 42.316406 293.589844 45.125 293.375 47.625 C 293.359375 47.984375 293.355469 48.339844 293.355469 48.699219 C 293.355469 48.800781 293.355469 48.902344 293.351562 49.007812 C 293.351562 49.347656 293.351562 49.6875 293.347656 50.023438 C 293.347656 50.269531 293.347656 50.511719 293.34375 50.757812 C 293.34375 51.417969 293.339844 52.078125 293.335938 52.738281 C 293.335938 53.425781 293.332031 54.117188 293.328125 54.808594 C 293.320312 56.117188 293.316406 57.421875 293.308594 58.730469 C 293.304688 60.496094 293.292969 62.261719 293.285156 64.027344 C 293.273438 66.8125 293.261719 69.59375 293.25 72.375 C 289 72.375 284.753906 72.375 280.375 72.375 C 280.359375 65.792969 280.359375 65.792969 280.355469 63.019531 C 280.355469 61.109375 280.351562 59.199219 280.347656 57.289062 C 280.34375 55.898438 280.339844 54.507812 280.339844 53.117188 C 280.339844 52.378906 280.339844 51.644531 280.335938 50.910156 C 280.3125 44.660156 280.679688 38.480469 284.5 33.25 C 284.578125 33.140625 284.65625 33.035156 284.734375 32.921875 C 286.476562 30.625 288.710938 28.941406 291.25 27.625 C 291.332031 27.582031 291.410156 27.539062 291.496094 27.496094 C 296.621094 24.816406 302.648438 24.347656 308.332031 24.363281 Z M 308.332031 24.363281 "/>
</g>
</svg>
