<?xml version="1.0" encoding="UTF-8"?>
<svg xmlns="http://www.w3.org/2000/svg" xmlns:xlink="http://www.w3.org/1999/xlink" width="1500px" height="400px" viewBox="0 0 1500 400" version="1.1">
<g id="surface1">
<path style=" stroke:none;fill-rule:nonzero;fill:rgb(7.058824%,68.235296%,93.725491%);fill-opacity:1;" d="M 244.109375 58.203125 C 245.351562 59.363281 246.621094 60.480469 247.90625 61.59375 C 250.433594 63.859375 252.714844 66.324219 255.015625 68.8125 C 257.679688 71.6875 260.429688 74.464844 263.230469 77.210938 C 264.785156 78.742188 266.277344 80.296875 267.703125 81.953125 C 269.6875 84.253906 271.835938 86.371094 274 88.5 C 278.28125 92.710938 278.28125 92.710938 280.234375 94.984375 C 282.28125 97.367188 284.511719 99.546875 286.75 101.75 C 289.300781 104.257812 291.777344 106.78125 294.105469 109.496094 C 295.816406 111.417969 297.667969 113.199219 299.5 115 C 303.78125 119.210938 303.78125 119.210938 305.734375 121.484375 C 307.78125 123.867188 310.011719 126.046875 312.25 128.25 C 314.792969 130.753906 317.265625 133.269531 319.589844 135.980469 C 321.382812 137.992188 323.328125 139.859375 325.25 141.75 C 327.800781 144.257812 330.277344 146.78125 332.605469 149.496094 C 334.316406 151.417969 336.167969 153.199219 338 155 C 342.28125 159.210938 342.28125 159.210938 344.234375 161.484375 C 346.28125 163.867188 348.511719 166.046875 350.75 168.25 C 353.300781 170.757812 355.777344 173.28125 358.105469 175.996094 C 359.816406 177.917969 361.667969 179.699219 363.5 181.5 C 366.015625 183.972656 368.464844 186.457031 370.746094 189.148438 C 371.457031 189.953125 372.203125 190.65625 373 191.375 C 374 192.5 374 192.5 373.96875 193.421875 C 373.289062 194.980469 372.25 195.765625 370.96875 196.875 C 367.988281 199.507812 365.179688 202.289062 362.390625 205.125 C 360.828125 206.710938 359.246094 208.242188 357.554688 209.695312 C 355.160156 211.757812 352.964844 214 350.75 216.25 C 348.246094 218.792969 345.730469 221.265625 343.019531 223.589844 C 341.007812 225.382812 339.140625 227.328125 337.25 229.25 C 334.742188 231.800781 332.21875 234.277344 329.503906 236.605469 C 327.582031 238.316406 325.800781 240.167969 324 242 C 319.789062 246.28125 319.789062 246.28125 317.515625 248.234375 C 315.132812 250.28125 312.953125 252.511719 310.75 254.75 C 308.242188 257.300781 305.71875 259.777344 303.003906 262.105469 C 301.082031 263.816406 299.300781 265.667969 297.5 267.5 C 293.289062 271.78125 293.289062 271.78125 291.015625 273.734375 C 288.632812 275.78125 286.453125 278.011719 284.25 280.25 C 281.742188 282.800781 279.21875 285.277344 276.503906 287.605469 C 274.582031 289.316406 272.800781 291.167969 271 293 C 266.789062 297.28125 266.789062 297.28125 264.515625 299.234375 C 262.132812 301.28125 259.953125 303.511719 257.75 305.75 C 255.246094 308.292969 252.730469 310.765625 250.019531 313.089844 C 248.007812 314.882812 246.140625 316.828125 244.25 318.75 C 241.699219 321.34375 239.132812 323.867188 236.375 326.234375 C 235.21875 327.246094 234.15625 328.332031 233.09375 329.4375 C 230.949219 331.605469 228.691406 333.535156 226.3125 335.4375 C 225.160156 336.367188 224.082031 337.335938 223 338.34375 C 210.9375 349.125 195.695312 358.324219 180 362.5 C 179.421875 362.65625 179.421875 362.65625 178.835938 362.8125 C 168.332031 365.519531 156.523438 365.691406 146 363 C 145.492188 362.875 145.492188 362.875 144.972656 362.75 C 133.328125 359.839844 122.800781 354.023438 113.5 346.5 C 113.238281 346.289062 112.976562 346.078125 112.707031 345.859375 C 105.671875 340.140625 98.960938 333.75 93.5 326.5 C 93.289062 326.222656 93.074219 325.945312 92.855469 325.660156 C 79.960938 308.816406 72.195312 289.1875 74.914062 267.699219 C 77.484375 249.804688 86.085938 234.285156 97.5 220.5 C 97.898438 220.019531 98.292969 219.535156 98.703125 219.039062 C 102.625 214.339844 106.863281 209.996094 111.210938 205.6875 C 112.382812 204.523438 113.550781 203.355469 114.722656 202.1875 C 115.476562 201.433594 116.234375 200.679688 116.992188 199.921875 C 117.335938 199.582031 117.679688 199.238281 118.03125 198.886719 C 120 196.9375 122.019531 195.085938 124.113281 193.277344 C 125.191406 192.332031 126.210938 191.335938 127.21875 190.3125 C 127.59375 189.933594 127.96875 189.554688 128.355469 189.164062 C 128.734375 188.78125 129.109375 188.394531 129.5 188 C 133.710938 183.71875 133.710938 183.71875 135.984375 181.765625 C 138.367188 179.71875 140.546875 177.488281 142.75 175.25 C 145.253906 172.707031 147.769531 170.234375 150.480469 167.910156 C 152.492188 166.117188 154.359375 164.171875 156.25 162.25 C 158.757812 159.699219 161.28125 157.226562 163.996094 154.894531 C 166.328125 152.816406 168.46875 150.53125 170.644531 148.292969 C 172.953125 145.953125 175.300781 143.878906 178 142 C 184.480469 148.390625 184.480469 148.390625 187.164062 151.554688 C 188.503906 153.070312 189.964844 154.46875 191.40625 155.890625 C 192.699219 157.203125 193.894531 158.585938 195.09375 159.984375 C 196.105469 161.117188 197.167969 162.183594 198.25 163.25 C 199.632812 164.613281 200.957031 165.992188 202.21875 167.46875 C 203.578125 169.054688 205.015625 170.53125 206.5 172 C 208.292969 173.769531 209.972656 175.585938 211.609375 177.5 C 212.976562 179.035156 214.445312 180.449219 215.90625 181.890625 C 217.199219 183.203125 218.390625 184.578125 219.585938 185.976562 C 220.984375 187.542969 222.488281 189 223.992188 190.460938 C 226.492188 193.039062 226.492188 193.039062 226.515625 194.460938 C 225.742188 196.015625 224.507812 197.003906 223.21875 198.125 C 220.15625 200.859375 217.242188 203.71875 214.367188 206.652344 C 212.808594 208.230469 211.238281 209.75 209.554688 211.191406 C 207.164062 213.257812 204.964844 215.5 202.75 217.75 C 200.242188 220.300781 197.71875 222.777344 195.003906 225.105469 C 193.082031 226.816406 191.300781 228.667969 189.5 230.5 C 185.289062 234.78125 185.289062 234.78125 183.015625 236.734375 C 180.632812 238.78125 178.453125 241.011719 176.25 243.25 C 173.734375 245.808594 171.207031 248.296875 168.484375 250.636719 C 156.792969 260.828125 156.792969 260.828125 150.882812 274.632812 C 150.753906 278.75 151.789062 281.824219 154.5625 284.90625 C 157.128906 287.269531 160.046875 288.316406 163.46875 288.75 C 173.007812 288.136719 181.503906 279.246094 187.761719 272.726562 C 188.765625 271.734375 189.777344 270.816406 190.847656 269.898438 C 193.269531 267.800781 195.503906 265.53125 197.75 263.25 C 200.253906 260.707031 202.769531 258.234375 205.480469 255.910156 C 207.492188 254.117188 209.359375 252.171875 211.25 250.25 C 213.757812 247.699219 216.28125 245.222656 218.996094 242.894531 C 220.917969 241.183594 222.699219 239.332031 224.5 237.5 C 228.710938 233.21875 228.710938 233.21875 230.984375 231.265625 C 233.367188 229.21875 235.546875 226.988281 237.75 224.75 C 240.257812 222.199219 242.78125 219.722656 245.496094 217.394531 C 247.417969 215.683594 249.199219 213.832031 251 212 C 255.210938 207.71875 255.210938 207.71875 257.476562 205.769531 C 259.890625 203.699219 262.109375 201.445312 264.34375 199.1875 C 264.757812 198.769531 265.171875 198.355469 265.597656 197.925781 C 266.390625 197.132812 267.179688 196.335938 267.96875 195.539062 C 269.140625 194.355469 270.320312 193.175781 271.5 192 C 268.398438 188.601562 265.277344 185.246094 262 182.015625 C 261.0625 181.0625 260.183594 180.082031 259.3125 179.0625 C 257.867188 177.378906 256.328125 175.808594 254.75 174.25 C 252.890625 172.414062 251.132812 170.535156 249.4375 168.546875 C 248.257812 167.230469 247.007812 165.992188 245.75 164.75 C 244.203125 163.222656 242.691406 161.6875 241.28125 160.03125 C 239.773438 158.261719 238.152344 156.632812 236.5 155 C 234.550781 153.074219 232.695312 151.117188 230.921875 149.03125 C 229.519531 147.464844 228.015625 146.007812 226.523438 144.53125 C 224.910156 142.933594 223.410156 141.273438 221.9375 139.546875 C 220.757812 138.230469 219.507812 136.992188 218.25 135.75 C 216.390625 133.914062 214.632812 132.035156 212.9375 130.046875 C 211.53125 128.476562 210.023438 127.015625 208.527344 125.535156 C 207.191406 124.210938 205.910156 122.867188 204.6875 121.4375 C 199.113281 114.964844 192.011719 108.625 183.117188 107.832031 C 173.253906 107.734375 166.316406 111.9375 159.304688 118.726562 C 158.460938 119.539062 157.601562 120.335938 156.738281 121.125 C 153.003906 124.5625 149.371094 128.082031 145.816406 131.703125 C 144.273438 133.265625 142.710938 134.773438 141.046875 136.203125 C 138.746094 138.1875 136.628906 140.335938 134.5 142.5 C 130.289062 146.78125 130.289062 146.78125 128.015625 148.734375 C 125.632812 150.78125 123.453125 153.011719 121.25 155.25 C 118.742188 157.800781 116.21875 160.277344 113.503906 162.605469 C 111.582031 164.316406 109.800781 166.167969 108 168 C 103.789062 172.28125 103.789062 172.28125 101.515625 174.234375 C 99.132812 176.28125 96.953125 178.511719 94.75 180.75 C 92.242188 183.300781 89.71875 185.777344 87.003906 188.105469 C 85.082031 189.816406 83.300781 191.667969 81.5 193.5 C 77.289062 197.78125 77.289062 197.78125 75.015625 199.734375 C 72.632812 201.78125 70.453125 204.011719 68.25 206.25 C 65.691406 208.847656 63.132812 211.390625 60.355469 213.753906 C 59.53125 214.472656 58.761719 215.21875 58 216 C 56.550781 215.34375 55.515625 214.640625 54.398438 213.511719 C 53.957031 213.070312 53.957031 213.070312 53.507812 212.617188 C 53.054688 212.15625 53.054688 212.15625 52.59375 211.6875 C 52.152344 211.242188 52.152344 211.242188 51.699219 210.792969 C 50.183594 209.261719 48.726562 207.699219 47.324219 206.066406 C 45.25 203.671875 43.003906 201.46875 40.75 199.25 C 38.199219 196.742188 35.722656 194.21875 33.394531 191.503906 C 31.683594 189.582031 29.832031 187.800781 28 186 C 23.71875 181.789062 23.71875 181.789062 21.769531 179.519531 C 19.703125 177.113281 17.445312 174.910156 15.1875 172.6875 C 12.671875 170.210938 10.195312 167.769531 8 165 C 8.707031 163.386719 9.558594 162.320312 10.8125 161.09375 C 11.128906 160.78125 11.445312 160.46875 11.769531 160.148438 C 12.78125 159.203125 13.808594 158.300781 14.855469 157.402344 C 17.183594 155.375 19.339844 153.199219 21.5 151 C 25.710938 146.71875 25.710938 146.71875 27.984375 144.765625 C 30.367188 142.71875 32.546875 140.488281 34.75 138.25 C 37.253906 135.707031 39.769531 133.234375 42.480469 130.910156 C 44.492188 129.117188 46.359375 127.171875 48.25 125.25 C 50.757812 122.699219 53.28125 120.222656 55.996094 117.894531 C 57.917969 116.183594 59.699219 114.332031 61.5 112.5 C 65.710938 108.21875 65.710938 108.21875 67.984375 106.265625 C 70.367188 104.21875 72.546875 101.988281 74.75 99.75 C 77.257812 97.199219 79.78125 94.722656 82.496094 92.394531 C 84.417969 90.683594 86.199219 88.832031 88 87 C 92.210938 82.71875 92.210938 82.71875 94.484375 80.765625 C 96.867188 78.71875 99.046875 76.488281 101.25 74.25 C 103.808594 71.652344 106.375 69.125 109.140625 66.75 C 110.203125 65.820312 111.183594 64.832031 112.15625 63.8125 C 114.179688 61.765625 116.324219 59.945312 118.570312 58.148438 C 119.511719 57.394531 120.4375 56.621094 121.351562 55.835938 C 157.523438 24.605469 203.910156 22.746094 244.109375 58.203125 Z M 244.109375 58.203125 "/>
<path style=" stroke:none;fill-rule:nonzero;fill:rgb(38.431373%,43.137255%,46.666667%);fill-opacity:1;" d="M 464.78125 97.375 C 465.28125 97.375 465.78125 97.375 466.296875 97.375 C 483.546875 97.390625 505.851562 98.257812 518.96875 111.28125 C 519.488281 111.847656 520.003906 112.417969 520.5 113 C 521.992188 112.328125 523.019531 111.574219 524.1875 110.4375 C 531.132812 104.292969 540.304688 101.414062 549.21875 99.59375 C 549.695312 99.496094 550.167969 99.398438 550.660156 99.296875 C 559.234375 97.675781 567.855469 97.308594 576.5625 97.34375 C 577.054688 97.34375 577.542969 97.34375 578.046875 97.347656 C 600.710938 97.417969 624.253906 101.460938 641 118 C 649.316406 126.878906 653.871094 138.152344 656 150 C 656.085938 150.464844 656.167969 150.929688 656.257812 151.410156 C 657.25 157.742188 657.132812 164.070312 657.113281 170.46875 C 657.113281 171.769531 657.113281 173.070312 657.113281 174.375 C 657.113281 177.160156 657.113281 179.949219 657.105469 182.738281 C 657.097656 186.769531 657.09375 190.800781 657.09375 194.832031 C 657.089844 201.375 657.085938 207.917969 657.074219 214.460938 C 657.066406 220.8125 657.058594 227.164062 657.054688 233.515625 C 657.054688 234.105469 657.054688 234.105469 657.054688 234.703125 C 657.054688 236.671875 657.050781 238.640625 657.050781 240.609375 C 657.039062 256.90625 657.023438 273.203125 657 289.5 C 640.5 289.5 624 289.5 607 289.5 C 606.996094 285.777344 606.992188 282.054688 606.984375 278.21875 C 606.96875 266.292969 606.941406 254.367188 606.910156 242.441406 C 606.90625 240.585938 606.902344 238.734375 606.894531 236.878906 C 606.894531 236.507812 606.894531 236.140625 606.894531 235.761719 C 606.878906 229.792969 606.871094 223.824219 606.863281 217.859375 C 606.855469 211.730469 606.84375 205.601562 606.824219 199.472656 C 606.808594 195.695312 606.804688 191.914062 606.804688 188.136719 C 606.804688 185.234375 606.792969 182.332031 606.78125 179.429688 C 606.773438 178.242188 606.773438 177.054688 606.777344 175.871094 C 606.875 164.382812 606.875 164.382812 601.5 154.5 C 594.847656 148.535156 586.257812 147.316406 577.660156 147.34375 C 576.632812 147.34375 575.605469 147.332031 574.578125 147.320312 C 568.460938 147.289062 562.269531 147.894531 556.78125 150.8125 C 556.449219 150.988281 556.113281 151.160156 555.769531 151.339844 C 551.019531 153.953125 548.8125 157.304688 546.953125 162.34375 C 545.976562 165.898438 545.925781 169.433594 545.921875 173.09375 C 545.917969 173.84375 545.917969 173.84375 545.914062 174.609375 C 545.90625 176.273438 545.902344 177.941406 545.898438 179.609375 C 545.890625 180.804688 545.886719 182.003906 545.882812 183.199219 C 545.871094 186.109375 545.859375 189.019531 545.851562 191.929688 C 545.839844 195.316406 545.828125 198.703125 545.8125 202.089844 C 545.789062 208.132812 545.769531 214.171875 545.75 220.210938 C 545.730469 226.078125 545.707031 231.945312 545.6875 237.808594 C 545.683594 238.351562 545.683594 238.351562 545.683594 238.90625 C 545.675781 240.722656 545.667969 242.535156 545.660156 244.351562 C 545.605469 259.402344 545.550781 274.449219 545.5 289.5 C 529 289.5 512.5 289.5 495.5 289.5 C 495.496094 285.777344 495.492188 282.054688 495.484375 278.21875 C 495.46875 266.292969 495.441406 254.367188 495.410156 242.441406 C 495.40625 240.585938 495.402344 238.734375 495.394531 236.878906 C 495.394531 236.507812 495.394531 236.140625 495.394531 235.761719 C 495.378906 229.792969 495.371094 223.824219 495.363281 217.859375 C 495.355469 211.730469 495.34375 205.601562 495.324219 199.472656 C 495.308594 195.695312 495.304688 191.914062 495.304688 188.136719 C 495.304688 185.234375 495.292969 182.332031 495.28125 179.429688 C 495.273438 178.242188 495.273438 177.054688 495.277344 175.871094 C 495.375 164.382812 495.375 164.382812 490 154.5 C 483.339844 148.527344 474.738281 147.316406 466.132812 147.34375 C 465.101562 147.34375 464.066406 147.332031 463.035156 147.320312 C 455.070312 147.28125 446.761719 148.75 440.484375 153.992188 C 435.363281 159.226562 434.429688 166.054688 434.421875 173.035156 C 434.417969 173.53125 434.414062 174.03125 434.414062 174.546875 C 434.40625 176.214844 434.402344 177.882812 434.398438 179.550781 C 434.390625 180.75 434.386719 181.945312 434.382812 183.144531 C 434.371094 186.054688 434.359375 188.964844 434.351562 191.878906 C 434.339844 195.265625 434.328125 198.65625 434.3125 202.042969 C 434.289062 208.089844 434.269531 214.132812 434.25 220.175781 C 434.230469 226.042969 434.207031 231.914062 434.1875 237.78125 C 434.183594 238.144531 434.183594 238.507812 434.183594 238.878906 C 434.175781 240.695312 434.167969 242.511719 434.160156 244.328125 C 434.105469 259.386719 434.050781 274.441406 434 289.5 C 417.5 289.5 401 289.5 384 289.5 C 383.976562 273.363281 383.960938 257.226562 383.949219 241.089844 C 383.949219 239.179688 383.945312 237.273438 383.945312 235.363281 C 383.945312 234.980469 383.945312 234.601562 383.945312 234.210938 C 383.941406 228.074219 383.933594 221.9375 383.921875 215.800781 C 383.914062 209.492188 383.90625 203.183594 383.90625 196.878906 C 383.90625 192.992188 383.898438 189.109375 383.890625 185.222656 C 383.886719 182.230469 383.886719 179.242188 383.886719 176.25 C 383.886719 175.03125 383.882812 173.8125 383.878906 172.597656 C 383.824219 154.367188 385.675781 134.667969 398.5 120.5 C 399.003906 119.890625 399.003906 119.890625 399.519531 119.265625 C 411.945312 104.605469 432.363281 99.53125 450.699219 97.703125 C 455.382812 97.347656 460.085938 97.378906 464.78125 97.375 Z M 464.78125 97.375 "/>
<path style=" stroke:none;fill-rule:nonzero;fill:rgb(38.431373%,43.137255%,46.666667%);fill-opacity:1;" d="M 672 97.5 C 840.5 97.5 840.5 97.5 868 124 C 868.421875 124.382812 868.839844 124.765625 869.273438 125.160156 C 884.105469 139.09375 890.0625 160.398438 892 180 C 892.066406 180.652344 892.132812 181.308594 892.199219 181.984375 C 893.890625 202.6875 891.351562 224.097656 882.5 243 C 882.34375 243.332031 882.1875 243.667969 882.027344 244.011719 C 873.199219 262.523438 856.238281 275.261719 837.257812 282.078125 C 815.777344 289.453125 793.292969 289.605469 770.84375 289.53125 C 766.273438 289.519531 761.707031 289.511719 757 289.5 C 757 272.835938 757 256.171875 757 239 C 775.875 238.84375 775.875 238.84375 781.769531 238.804688 C 793.960938 238.746094 793.960938 238.746094 806 237 C 806.515625 236.886719 807.03125 236.777344 807.5625 236.660156 C 808.78125 236.367188 809.964844 236.035156 811.15625 235.65625 C 811.566406 235.527344 811.976562 235.402344 812.394531 235.269531 C 822.316406 232.039062 830.328125 226 835.125 216.625 C 840.988281 204.621094 841.664062 190.015625 837.542969 177.355469 C 834.25 167.824219 827.453125 161.273438 818.5 156.90625 C 791.316406 144.347656 749.414062 150.679688 725.5 150.5 C 725.5 225.078125 725.5 299.660156 725.5 376.5 C 707.84375 376.5 690.191406 376.5 672 376.5 C 672 284.429688 672 192.359375 672 97.5 Z M 672 97.5 "/>
<path style=" stroke:none;fill-rule:nonzero;fill:rgb(38.431373%,43.137255%,46.666667%);fill-opacity:1;" d="M 941 97.5 C 967.011719 97.460938 967.011719 97.460938 977.964844 97.453125 C 985.507812 97.445312 993.050781 97.4375 1000.59375 97.425781 C 1006.089844 97.414062 1011.585938 97.40625 1017.082031 97.40625 C 1019.988281 97.40625 1022.894531 97.402344 1025.796875 97.394531 C 1028.542969 97.386719 1031.285156 97.386719 1034.03125 97.386719 C 1035.027344 97.386719 1036.027344 97.382812 1037.027344 97.378906 C 1058.375 97.300781 1079.128906 100.609375 1095 116 C 1098.304688 119.289062 1100.703125 122.957031 1103 127 C 1103.402344 127.699219 1103.402344 127.699219 1103.8125 128.414062 C 1107.191406 134.710938 1108.960938 141.558594 1110.15625 148.5625 C 1110.234375 149.027344 1110.316406 149.492188 1110.398438 149.96875 C 1111.726562 158.4375 1111.570312 167.03125 1111.558594 175.578125 C 1111.554688 176.824219 1111.558594 178.074219 1111.558594 179.320312 C 1111.558594 181.988281 1111.554688 184.65625 1111.554688 187.324219 C 1111.546875 191.183594 1111.546875 195.042969 1111.546875 198.902344 C 1111.546875 205.164062 1111.542969 211.425781 1111.539062 217.6875 C 1111.53125 223.765625 1111.53125 229.84375 1111.527344 235.921875 C 1111.527344 236.484375 1111.527344 236.484375 1111.527344 237.058594 C 1111.527344 238.941406 1111.527344 240.828125 1111.523438 242.710938 C 1111.519531 258.308594 1111.511719 273.902344 1111.5 289.5 C 1094.515625 289.511719 1077.527344 289.519531 1060.542969 289.527344 C 1058.53125 289.527344 1056.519531 289.527344 1054.507812 289.527344 C 1054.109375 289.527344 1053.707031 289.527344 1053.296875 289.527344 C 1046.835938 289.53125 1040.378906 289.535156 1033.921875 289.539062 C 1027.277344 289.542969 1020.636719 289.546875 1013.996094 289.546875 C 1009.90625 289.546875 1005.820312 289.550781 1001.730469 289.554688 C 998.914062 289.554688 996.101562 289.558594 993.285156 289.558594 C 991.667969 289.554688 990.050781 289.558594 988.4375 289.558594 C 982.203125 289.570312 975.984375 289.523438 969.757812 289.285156 C 969.261719 289.265625 968.769531 289.25 968.261719 289.230469 C 951.648438 288.519531 934.660156 284.871094 922 273.5 C 921.46875 273.03125 921.46875 273.03125 920.929688 272.554688 C 910.523438 262.804688 906.097656 248.152344 905.414062 234.285156 C 904.839844 216.378906 907.722656 200.164062 919.570312 186.242188 C 927.652344 177.679688 938.636719 173.03125 949.90625 170.40625 C 950.230469 170.328125 950.554688 170.25 950.890625 170.171875 C 960.269531 168.121094 969.816406 168.363281 979.355469 168.398438 C 981.40625 168.40625 983.457031 168.40625 985.503906 168.40625 C 989.371094 168.410156 993.238281 168.417969 997.105469 168.429688 C 1002.34375 168.441406 1007.578125 168.445312 1012.816406 168.453125 C 1021.042969 168.460938 1029.273438 168.480469 1037.5 168.5 C 1037.335938 185 1037.171875 201.5 1037 218.5 C 1032.25 218.519531 1027.5 218.539062 1022.609375 218.554688 C 1019.589844 218.570312 1016.570312 218.585938 1013.550781 218.605469 C 1008.761719 218.632812 1003.976562 218.65625 999.191406 218.671875 C 995.703125 218.683594 992.21875 218.703125 988.730469 218.722656 C 986.886719 218.734375 985.042969 218.746094 983.199219 218.75 C 981.132812 218.753906 979.066406 218.769531 977 218.785156 C 976.402344 218.78125 975.804688 218.78125 975.183594 218.78125 C 969.753906 218.839844 963.957031 219.121094 959.5 222.5 C 957.265625 224.972656 956.785156 226.917969 956.832031 230.179688 C 957.113281 232.382812 957.980469 233.902344 959.5 235.5 C 964.554688 239.265625 971.546875 238.652344 977.511719 238.660156 C 978.421875 238.664062 979.328125 238.667969 980.234375 238.675781 C 982.683594 238.6875 985.132812 238.695312 987.585938 238.703125 C 990.148438 238.710938 992.714844 238.722656 995.28125 238.738281 C 1000.132812 238.757812 1004.984375 238.777344 1009.835938 238.792969 C 1015.359375 238.8125 1020.886719 238.839844 1026.414062 238.863281 C 1037.777344 238.914062 1049.136719 238.960938 1060.5 239 C 1060.535156 229.539062 1060.5625 220.074219 1060.578125 210.613281 C 1060.585938 206.21875 1060.597656 201.824219 1060.613281 197.429688 C 1060.628906 193.597656 1060.636719 189.765625 1060.640625 185.933594 C 1060.644531 183.90625 1060.648438 181.878906 1060.660156 179.851562 C 1060.667969 177.9375 1060.671875 176.027344 1060.667969 174.113281 C 1060.671875 173.414062 1060.671875 172.71875 1060.679688 172.023438 C 1060.730469 165.5 1060.285156 158.738281 1056 153.5 C 1049.558594 147.332031 1040.808594 147.847656 1032.5 147.839844 C 1031.5 147.835938 1030.5 147.832031 1029.5 147.824219 C 1026.796875 147.8125 1024.097656 147.804688 1021.394531 147.796875 C 1018.566406 147.789062 1015.738281 147.777344 1012.910156 147.761719 C 1007.558594 147.742188 1002.210938 147.722656 996.863281 147.707031 C 989.628906 147.683594 982.394531 147.652344 975.160156 147.621094 C 963.773438 147.574219 952.386719 147.539062 941 147.5 C 941 131 941 114.5 941 97.5 Z M 941 97.5 "/>
<path style=" stroke:none;fill-rule:nonzero;fill:rgb(38.431373%,43.137255%,46.666667%);fill-opacity:1;" d="M 1431.71875 122.300781 C 1435.832031 125.984375 1439.195312 130.101562 1442.5 134.5 C 1442.8125 134.917969 1443.128906 135.332031 1443.453125 135.761719 C 1458.511719 156.527344 1464.246094 182.753906 1460.265625 208 C 1456.21875 231.125 1444.476562 253.640625 1425.5 268 C 1425.035156 268.367188 1424.570312 268.734375 1424.089844 269.113281 C 1410.082031 279.984375 1393.488281 286.15625 1376 288.5 C 1375.265625 288.597656 1375.265625 288.597656 1374.515625 288.699219 C 1355.449219 290.726562 1335.835938 287.164062 1319 278 C 1318.695312 277.835938 1318.390625 277.675781 1318.074219 277.507812 C 1313.765625 275.195312 1309.816406 272.5625 1306 269.5 C 1305.488281 269.089844 1304.972656 268.679688 1304.445312 268.257812 C 1297.6875 262.742188 1291.605469 256.574219 1286.5 249.5 C 1286.292969 249.214844 1286.085938 248.929688 1285.871094 248.632812 C 1270.382812 227.097656 1265.617188 200.421875 1269.75 174.425781 C 1272.347656 159.496094 1278.402344 146.054688 1287.5 134 C 1287.839844 133.539062 1288.179688 133.074219 1288.53125 132.601562 C 1303.765625 112.886719 1326.789062 99.402344 1351.484375 96.160156 C 1381.320312 92.613281 1409.4375 102.527344 1431.71875 122.300781 Z M 1331.507812 159.273438 C 1322.503906 169.296875 1319.523438 182.601562 1320.050781 195.769531 C 1320.757812 207.355469 1324.367188 217.714844 1332 226.5 C 1332.324219 226.875 1332.644531 227.246094 1332.976562 227.632812 C 1340.261719 235.433594 1350.5625 239.757812 1361.117188 240.140625 C 1374.4375 240.421875 1385.402344 237.441406 1395.351562 228.167969 C 1404.011719 219.773438 1408.777344 208.085938 1409.167969 196.09375 C 1409.355469 181.089844 1406.753906 168.058594 1395.972656 156.929688 C 1389.804688 150.8125 1382.394531 147.308594 1374 145.5 C 1373.332031 145.355469 1373.332031 145.355469 1372.65625 145.207031 C 1356.730469 143.214844 1342.570312 147.53125 1331.507812 159.273438 Z M 1331.507812 159.273438 "/>
<path style=" stroke:none;fill-rule:nonzero;fill:rgb(38.431373%,43.137255%,46.666667%);fill-opacity:1;" d="M 1233.332031 97.453125 C 1234.226562 97.453125 1235.121094 97.453125 1236.015625 97.453125 C 1239.28125 97.457031 1242.546875 97.460938 1245.8125 97.46875 C 1256.796875 97.484375 1256.796875 97.484375 1268 97.5 C 1268 114 1268 130.5 1268 147.5 C 1247.9375 147.6875 1247.9375 147.6875 1241.675781 147.738281 C 1211.835938 147.902344 1211.835938 147.902344 1186 161.5 C 1185.6875 161.765625 1185.375 162.03125 1185.054688 162.304688 C 1177.414062 169.273438 1174.359375 180.507812 1173.5 190.5 C 1173.433594 191.933594 1173.421875 193.363281 1173.421875 194.800781 C 1173.417969 195.207031 1173.414062 195.617188 1173.414062 196.035156 C 1173.40625 197.390625 1173.402344 198.746094 1173.398438 200.097656 C 1173.390625 201.074219 1173.386719 202.050781 1173.382812 203.027344 C 1173.367188 205.667969 1173.359375 208.308594 1173.347656 210.945312 C 1173.335938 213.710938 1173.324219 216.472656 1173.308594 219.234375 C 1173.285156 224.460938 1173.261719 229.691406 1173.242188 234.917969 C 1173.210938 241.984375 1173.179688 249.050781 1173.144531 256.117188 C 1173.09375 267.246094 1173.046875 278.371094 1173 289.5 C 1156.003906 289.5 1139.011719 289.5 1121.5 289.5 C 1121.441406 263.171875 1121.441406 263.171875 1121.425781 252.074219 C 1121.417969 244.4375 1121.40625 236.796875 1121.386719 229.160156 C 1121.371094 223.59375 1121.363281 218.027344 1121.359375 212.460938 C 1121.355469 209.519531 1121.351562 206.578125 1121.339844 203.636719 C 1121.25 178.636719 1122.722656 153.914062 1138 133 C 1138.3125 132.566406 1138.621094 132.136719 1138.941406 131.6875 C 1145.910156 122.5 1154.84375 115.769531 1165 110.5 C 1165.324219 110.328125 1165.644531 110.160156 1165.980469 109.984375 C 1186.480469 99.269531 1210.589844 97.386719 1233.332031 97.453125 Z M 1233.332031 97.453125 "/>
</g>
</svg>
